<svg width="302" height="302" viewBox="0 0 302 302" fill="none" xmlns="http://www.w3.org/2000/svg">
<circle cx="151" cy="151" r="151" fill="#D1D1D1"/>
<path d="M95.7917 110.708H103.75C107.971 110.708 112.02 109.031 115.005 106.046C117.99 103.061 119.667 99.013 119.667 94.7917C119.667 92.681 120.505 90.6567 121.998 89.1643C123.49 87.6718 125.514 86.8333 127.625 86.8333H175.375C177.486 86.8333 179.51 87.6718 181.002 89.1643C182.495 90.6567 183.333 92.681 183.333 94.7917C183.333 99.013 185.01 103.061 187.995 106.046C190.98 109.031 195.029 110.708 199.25 110.708H207.208C211.43 110.708 215.478 112.385 218.463 115.37C221.448 118.355 223.125 122.404 223.125 126.625V198.25C223.125 202.471 221.448 206.52 218.463 209.505C215.478 212.49 211.43 214.167 207.208 214.167H95.7917C91.5703 214.167 87.5218 212.49 84.5369 209.505C81.5519 206.52 79.875 202.471 79.875 198.25V126.625C79.875 122.404 81.5519 118.355 84.5369 115.37C87.5218 112.385 91.5703 110.708 95.7917 110.708" stroke="#B4B4B4" stroke-width="8" stroke-linecap="round" stroke-linejoin="round"/>
<path d="M151.5 182.333C164.686 182.333 175.375 171.644 175.375 158.458C175.375 145.273 164.686 134.583 151.5 134.583C138.314 134.583 127.625 145.273 127.625 158.458C127.625 171.644 138.314 182.333 151.5 182.333Z" stroke="#B4B4B4" stroke-width="8" stroke-linecap="round" stroke-linejoin="round"/>
</svg>
