<?xml version="1.0" encoding="UTF-8" standalone="no"?><svg xmlns="http://www.w3.org/2000/svg" xmlns:xlink="http://www.w3.org/1999/xlink" contentStyleType="text/css" height="940px" preserveAspectRatio="none" style="width:634px;height:940px;background:#FFFFFF;" version="1.1" viewBox="0 0 634 940" width="634px" zoomAndPan="magnify"><defs/><g><!--MD5=[4ec72d9024ac52009841511b2a13d71e]
class DayName--><g id="elem_DayName"><rect codeLine="3" fill="#F1F1F1" height="162.0781" id="DayName" rx="2.5" ry="2.5" style="stroke:#181818;stroke-width:0.5;" width="100" x="206.5" y="771"/><ellipse cx="221.5" cy="787" fill="#EB937F" rx="11" ry="11" style="stroke:#181818;stroke-width:1.0;"/><path d="M220.2969,787.875 L221.75,787.875 L221.75,787.9844 C221.75,788.3906 221.7813,788.5469 221.8594,788.7031 C222.0156,788.9531 222.2969,789.1094 222.5938,789.1094 C222.8438,789.1094 223.1094,788.9688 223.2656,788.75 C223.3906,788.5938 223.4219,788.4375 223.4219,787.9844 L223.4219,786.0625 C223.4219,785.9063 223.4219,785.8594 223.4063,785.7031 C223.3438,785.2344 223.0313,784.9219 222.5781,784.9219 C222.3281,784.9219 222.0625,785.0625 221.8906,785.2813 C221.7813,785.4531 221.75,785.6094 221.75,786.0625 L221.75,786.1875 L220.2969,786.1875 L220.2969,783.7813 L224.2813,783.7813 L224.2813,784.6406 C224.2813,785.0469 224.3125,785.2188 224.3906,785.375 C224.5625,785.625 224.8438,785.7813 225.125,785.7813 C225.3906,785.7813 225.6563,785.6406 225.8281,785.4219 C225.9375,785.25 225.9688,785.1094 225.9688,784.6406 L225.9688,782.0938 L218.3438,782.0938 C217.9063,782.0938 217.7813,782.1094 217.625,782.2031 C217.375,782.3594 217.2188,782.6563 217.2188,782.9375 C217.2188,783.2188 217.3594,783.4688 217.5781,783.6406 C217.7344,783.75 217.9219,783.7813 218.3438,783.7813 L218.5938,783.7813 L218.5938,790.2969 L218.3438,790.2969 C217.9375,790.2969 217.7813,790.3125 217.625,790.4219 C217.375,790.5938 217.2188,790.8594 217.2188,791.1563 C217.2188,791.4219 217.3594,791.6719 217.5781,791.8281 C217.7188,791.9531 217.9531,792 218.3438,792 L226.3438,792 L226.3438,789.4219 C226.3438,788.9844 226.3125,788.8438 226.2344,788.6875 C226.0625,788.4375 225.7813,788.2813 225.5,788.2813 C225.2344,788.2813 224.9688,788.3906 224.7969,788.6406 C224.6875,788.7969 224.6563,788.9375 224.6563,789.4219 L224.6563,790.2969 L220.2969,790.2969 L220.2969,787.875 Z " fill="#000000"/><text fill="#000000" font-family="sans-serif" font-size="14" lengthAdjust="spacing" textLength="68" x="235.5" y="791.8467">DayName</text><line style="stroke:#181818;stroke-width:0.5;" x1="207.5" x2="305.5" y1="803" y2="803"/><text fill="#000000" font-family="sans-serif" font-size="14" lengthAdjust="spacing" textLength="55" x="212.5" y="819.9951">Monday</text><text fill="#000000" font-family="sans-serif" font-size="14" lengthAdjust="spacing" textLength="58" x="212.5" y="836.292">Tuesday</text><text fill="#000000" font-family="sans-serif" font-size="14" lengthAdjust="spacing" textLength="82" x="212.5" y="852.5889">Wednesday</text><text fill="#000000" font-family="sans-serif" font-size="14" lengthAdjust="spacing" textLength="64" x="212.5" y="868.8857">Thursday</text><text fill="#000000" font-family="sans-serif" font-size="14" lengthAdjust="spacing" textLength="43" x="212.5" y="885.1826">Friday</text><text fill="#000000" font-family="sans-serif" font-size="14" lengthAdjust="spacing" textLength="63" x="212.5" y="901.4795">Saturday</text><text fill="#000000" font-family="sans-serif" font-size="14" lengthAdjust="spacing" textLength="51" x="212.5" y="917.7764">Sunday</text><line style="stroke:#181818;stroke-width:0.5;" x1="207.5" x2="305.5" y1="925.0781" y2="925.0781"/></g><!--MD5=[3fd616f346a44cd59a91eb10b19e157c]
class User--><g id="elem_User"><rect codeLine="13" fill="#F1F1F1" height="178.375" id="User" rx="2.5" ry="2.5" style="stroke:#181818;stroke-width:0.5;" width="247" x="7" y="7"/><ellipse cx="110.75" cy="23" fill="#ADD1B2" rx="11" ry="11" style="stroke:#181818;stroke-width:1.0;"/><path d="M109.5469,23.875 L111,23.875 L111,23.9844 C111,24.3906 111.0313,24.5469 111.1094,24.7031 C111.2656,24.9531 111.5469,25.1094 111.8438,25.1094 C112.0938,25.1094 112.3594,24.9688 112.5156,24.75 C112.6406,24.5938 112.6719,24.4375 112.6719,23.9844 L112.6719,22.0625 C112.6719,21.9063 112.6719,21.8594 112.6563,21.7031 C112.5938,21.2344 112.2813,20.9219 111.8281,20.9219 C111.5781,20.9219 111.3125,21.0625 111.1406,21.2813 C111.0313,21.4531 111,21.6094 111,22.0625 L111,22.1875 L109.5469,22.1875 L109.5469,19.7813 L113.5313,19.7813 L113.5313,20.6406 C113.5313,21.0469 113.5625,21.2188 113.6406,21.375 C113.8125,21.625 114.0938,21.7813 114.375,21.7813 C114.6406,21.7813 114.9063,21.6406 115.0781,21.4219 C115.1875,21.25 115.2188,21.1094 115.2188,20.6406 L115.2188,18.0938 L107.5938,18.0938 C107.1563,18.0938 107.0313,18.1094 106.875,18.2031 C106.625,18.3594 106.4688,18.6563 106.4688,18.9375 C106.4688,19.2188 106.6094,19.4688 106.8281,19.6406 C106.9844,19.75 107.1719,19.7813 107.5938,19.7813 L107.8438,19.7813 L107.8438,26.2969 L107.5938,26.2969 C107.1875,26.2969 107.0313,26.3125 106.875,26.4219 C106.625,26.5938 106.4688,26.8594 106.4688,27.1563 C106.4688,27.4219 106.6094,27.6719 106.8281,27.8281 C106.9688,27.9531 107.2031,28 107.5938,28 L115.5938,28 L115.5938,25.4219 C115.5938,24.9844 115.5625,24.8438 115.4844,24.6875 C115.3125,24.4375 115.0313,24.2813 114.75,24.2813 C114.4844,24.2813 114.2188,24.3906 114.0469,24.6406 C113.9375,24.7969 113.9063,24.9375 113.9063,25.4219 L113.9063,26.2969 L109.5469,26.2969 L109.5469,23.875 Z " fill="#000000"/><text fill="#000000" font-family="sans-serif" font-size="14" lengthAdjust="spacing" textLength="31" x="131.25" y="27.8467">User</text><line style="stroke:#181818;stroke-width:0.5;" x1="8" x2="253" y1="39" y2="39"/><ellipse cx="18" cy="52.6484" fill="#000000" rx="3" ry="3" style="stroke:#000000;stroke-width:1.0;"/><text fill="#000000" font-family="sans-serif" font-size="14" lengthAdjust="spacing" textLength="42" x="27" y="55.9951">id: Int</text><ellipse cx="18" cy="68.9453" fill="#000000" rx="3" ry="3" style="stroke:#000000;stroke-width:1.0;"/><text fill="#000000" font-family="sans-serif" font-size="14" lengthAdjust="spacing" textLength="93" x="27" y="72.292">name: String</text><ellipse cx="18" cy="85.2422" fill="#000000" rx="3" ry="3" style="stroke:#000000;stroke-width:1.0;"/><text fill="#000000" font-family="sans-serif" font-size="14" lengthAdjust="spacing" textLength="92" x="27" y="88.5889">email: String</text><ellipse cx="18" cy="101.5391" fill="#000000" rx="3" ry="3" style="stroke:#000000;stroke-width:1.0;"/><text fill="#000000" font-family="sans-serif" font-size="14" lengthAdjust="spacing" textLength="120" x="27" y="104.8857">password: String</text><ellipse cx="18" cy="117.8359" fill="#000000" rx="3" ry="3" style="stroke:#000000;stroke-width:1.0;"/><text fill="#000000" font-family="sans-serif" font-size="14" lengthAdjust="spacing" textLength="153" x="27" y="121.1826">createdAt: DateTime</text><ellipse cx="18" cy="134.1328" fill="#000000" rx="3" ry="3" style="stroke:#000000;stroke-width:1.0;"/><text fill="#000000" font-family="sans-serif" font-size="14" lengthAdjust="spacing" textLength="157" x="27" y="137.4795">updatedAt: DateTime</text><ellipse cx="18" cy="150.4297" fill="#000000" rx="3" ry="3" style="stroke:#000000;stroke-width:1.0;"/><text fill="#000000" font-family="sans-serif" font-size="14" lengthAdjust="spacing" textLength="221" x="27" y="153.7764">RefreshToken: RefreshToken[]</text><ellipse cx="18" cy="166.7266" fill="#000000" rx="3" ry="3" style="stroke:#000000;stroke-width:1.0;"/><text fill="#000000" font-family="sans-serif" font-size="14" lengthAdjust="spacing" textLength="191" x="27" y="170.0732">Practitioner: Practitioner[]</text><line style="stroke:#181818;stroke-width:0.5;" x1="8" x2="253" y1="177.375" y2="177.375"/></g><!--MD5=[717906f5578eb2fc29e48fa2044c46f6]
class RefreshToken--><g id="elem_RefreshToken"><rect codeLine="24" fill="#F1F1F1" height="162.0781" id="RefreshToken" rx="2.5" ry="2.5" style="stroke:#181818;stroke-width:0.5;" width="188" x="36.5" y="318.5"/><ellipse cx="76.25" cy="334.5" fill="#ADD1B2" rx="11" ry="11" style="stroke:#181818;stroke-width:1.0;"/><path d="M75.0469,335.375 L76.5,335.375 L76.5,335.4844 C76.5,335.8906 76.5313,336.0469 76.6094,336.2031 C76.7656,336.4531 77.0469,336.6094 77.3438,336.6094 C77.5938,336.6094 77.8594,336.4688 78.0156,336.25 C78.1406,336.0938 78.1719,335.9375 78.1719,335.4844 L78.1719,333.5625 C78.1719,333.4063 78.1719,333.3594 78.1563,333.2031 C78.0938,332.7344 77.7813,332.4219 77.3281,332.4219 C77.0781,332.4219 76.8125,332.5625 76.6406,332.7813 C76.5313,332.9531 76.5,333.1094 76.5,333.5625 L76.5,333.6875 L75.0469,333.6875 L75.0469,331.2813 L79.0313,331.2813 L79.0313,332.1406 C79.0313,332.5469 79.0625,332.7188 79.1406,332.875 C79.3125,333.125 79.5938,333.2813 79.875,333.2813 C80.1406,333.2813 80.4063,333.1406 80.5781,332.9219 C80.6875,332.75 80.7188,332.6094 80.7188,332.1406 L80.7188,329.5938 L73.0938,329.5938 C72.6563,329.5938 72.5313,329.6094 72.375,329.7031 C72.125,329.8594 71.9688,330.1563 71.9688,330.4375 C71.9688,330.7188 72.1094,330.9688 72.3281,331.1406 C72.4844,331.25 72.6719,331.2813 73.0938,331.2813 L73.3438,331.2813 L73.3438,337.7969 L73.0938,337.7969 C72.6875,337.7969 72.5313,337.8125 72.375,337.9219 C72.125,338.0938 71.9688,338.3594 71.9688,338.6563 C71.9688,338.9219 72.1094,339.1719 72.3281,339.3281 C72.4688,339.4531 72.7031,339.5 73.0938,339.5 L81.0938,339.5 L81.0938,336.9219 C81.0938,336.4844 81.0625,336.3438 80.9844,336.1875 C80.8125,335.9375 80.5313,335.7813 80.25,335.7813 C79.9844,335.7813 79.7188,335.8906 79.5469,336.1406 C79.4375,336.2969 79.4063,336.4375 79.4063,336.9219 L79.4063,337.7969 L75.0469,337.7969 L75.0469,335.375 Z " fill="#000000"/><text fill="#000000" font-family="sans-serif" font-size="14" lengthAdjust="spacing" textLength="101" x="95.75" y="339.3467">RefreshToken</text><line style="stroke:#181818;stroke-width:0.5;" x1="37.5" x2="223.5" y1="350.5" y2="350.5"/><ellipse cx="47.5" cy="364.1484" fill="#000000" rx="3" ry="3" style="stroke:#000000;stroke-width:1.0;"/><text fill="#000000" font-family="sans-serif" font-size="14" lengthAdjust="spacing" textLength="42" x="56.5" y="367.4951">id: Int</text><ellipse cx="47.5" cy="380.4453" fill="#000000" rx="3" ry="3" style="stroke:#000000;stroke-width:1.0;"/><text fill="#000000" font-family="sans-serif" font-size="14" lengthAdjust="spacing" textLength="96" x="56.5" y="383.792">token: String</text><ellipse cx="47.5" cy="396.7422" fill="#000000" rx="3" ry="3" style="stroke:#000000;stroke-width:1.0;"/><text fill="#000000" font-family="sans-serif" font-size="14" lengthAdjust="spacing" textLength="162" x="56.5" y="400.0889">expireTime: DateTime</text><ellipse cx="47.5" cy="413.0391" fill="#000000" rx="3" ry="3" style="stroke:#000000;stroke-width:1.0;"/><text fill="#000000" font-family="sans-serif" font-size="14" lengthAdjust="spacing" textLength="72" x="56.5" y="416.3857">userId: Int</text><ellipse cx="47.5" cy="429.3359" fill="#000000" rx="3" ry="3" style="stroke:#000000;stroke-width:1.0;"/><text fill="#000000" font-family="sans-serif" font-size="14" lengthAdjust="spacing" textLength="70" x="56.5" y="432.6826">user: User</text><ellipse cx="47.5" cy="445.6328" fill="#000000" rx="3" ry="3" style="stroke:#000000;stroke-width:1.0;"/><text fill="#000000" font-family="sans-serif" font-size="14" lengthAdjust="spacing" textLength="153" x="56.5" y="448.9795">createdAt: DateTime</text><ellipse cx="47.5" cy="461.9297" fill="#000000" rx="3" ry="3" style="stroke:#000000;stroke-width:1.0;"/><text fill="#000000" font-family="sans-serif" font-size="14" lengthAdjust="spacing" textLength="157" x="56.5" y="465.2764">updatedAt: DateTime</text><line style="stroke:#181818;stroke-width:0.5;" x1="37.5" x2="223.5" y1="472.5781" y2="472.5781"/></g><!--MD5=[2edc31ff762501c9cec4b1b863028f54]
class Practitioner--><g id="elem_Practitioner"><rect codeLine="34" fill="#F1F1F1" height="308.75" id="Practitioner" rx="2.5" ry="2.5" style="stroke:#181818;stroke-width:0.5;" width="254" x="259.5" y="245"/><ellipse cx="339.25" cy="261" fill="#ADD1B2" rx="11" ry="11" style="stroke:#181818;stroke-width:1.0;"/><path d="M338.0469,261.875 L339.5,261.875 L339.5,261.9844 C339.5,262.3906 339.5313,262.5469 339.6094,262.7031 C339.7656,262.9531 340.0469,263.1094 340.3438,263.1094 C340.5938,263.1094 340.8594,262.9688 341.0156,262.75 C341.1406,262.5938 341.1719,262.4375 341.1719,261.9844 L341.1719,260.0625 C341.1719,259.9063 341.1719,259.8594 341.1563,259.7031 C341.0938,259.2344 340.7813,258.9219 340.3281,258.9219 C340.0781,258.9219 339.8125,259.0625 339.6406,259.2813 C339.5313,259.4531 339.5,259.6094 339.5,260.0625 L339.5,260.1875 L338.0469,260.1875 L338.0469,257.7813 L342.0313,257.7813 L342.0313,258.6406 C342.0313,259.0469 342.0625,259.2188 342.1406,259.375 C342.3125,259.625 342.5938,259.7813 342.875,259.7813 C343.1406,259.7813 343.4063,259.6406 343.5781,259.4219 C343.6875,259.25 343.7188,259.1094 343.7188,258.6406 L343.7188,256.0938 L336.0938,256.0938 C335.6563,256.0938 335.5313,256.1094 335.375,256.2031 C335.125,256.3594 334.9688,256.6563 334.9688,256.9375 C334.9688,257.2188 335.1094,257.4688 335.3281,257.6406 C335.4844,257.75 335.6719,257.7813 336.0938,257.7813 L336.3438,257.7813 L336.3438,264.2969 L336.0938,264.2969 C335.6875,264.2969 335.5313,264.3125 335.375,264.4219 C335.125,264.5938 334.9688,264.8594 334.9688,265.1563 C334.9688,265.4219 335.1094,265.6719 335.3281,265.8281 C335.4688,265.9531 335.7031,266 336.0938,266 L344.0938,266 L344.0938,263.4219 C344.0938,262.9844 344.0625,262.8438 343.9844,262.6875 C343.8125,262.4375 343.5313,262.2813 343.25,262.2813 C342.9844,262.2813 342.7188,262.3906 342.5469,262.6406 C342.4375,262.7969 342.4063,262.9375 342.4063,263.4219 L342.4063,264.2969 L338.0469,264.2969 L338.0469,261.875 Z " fill="#000000"/><text fill="#000000" font-family="sans-serif" font-size="14" lengthAdjust="spacing" textLength="86" x="359.75" y="265.8467">Practitioner</text><line style="stroke:#181818;stroke-width:0.5;" x1="260.5" x2="512.5" y1="277" y2="277"/><ellipse cx="270.5" cy="290.6484" fill="#000000" rx="3" ry="3" style="stroke:#000000;stroke-width:1.0;"/><text fill="#000000" font-family="sans-serif" font-size="14" lengthAdjust="spacing" textLength="42" x="279.5" y="293.9951">id: Int</text><ellipse cx="270.5" cy="306.9453" fill="#000000" rx="3" ry="3" style="stroke:#000000;stroke-width:1.0;"/><text fill="#000000" font-family="sans-serif" font-size="14" lengthAdjust="spacing" textLength="115" x="279.5" y="310.292">fullname: String</text><ellipse cx="270.5" cy="323.2422" fill="#000000" rx="3" ry="3" style="stroke:#000000;stroke-width:1.0;"/><text fill="#000000" font-family="sans-serif" font-size="14" lengthAdjust="spacing" textLength="92" x="279.5" y="326.5889">email: String</text><ellipse cx="270.5" cy="339.5391" fill="#000000" rx="3" ry="3" style="stroke:#000000;stroke-width:1.0;"/><text fill="#000000" font-family="sans-serif" font-size="14" lengthAdjust="spacing" textLength="109" x="279.5" y="342.8857">contact: String</text><ellipse cx="270.5" cy="355.8359" fill="#000000" rx="3" ry="3" style="stroke:#000000;stroke-width:1.0;"/><text fill="#000000" font-family="sans-serif" font-size="14" lengthAdjust="spacing" textLength="108" x="279.5" y="359.1826">dob: DateTime</text><ellipse cx="270.5" cy="372.1328" fill="#000000" rx="3" ry="3" style="stroke:#000000;stroke-width:1.0;"/><text fill="#000000" font-family="sans-serif" font-size="14" lengthAdjust="spacing" textLength="108" x="279.5" y="375.4795">address: String</text><ellipse cx="270.5" cy="388.4297" fill="#000000" rx="3" ry="3" style="stroke:#000000;stroke-width:1.0;"/><text fill="#000000" font-family="sans-serif" font-size="14" lengthAdjust="spacing" textLength="97" x="279.5" y="391.7764">image: String</text><ellipse cx="270.5" cy="404.7266" fill="#000000" rx="3" ry="3" style="stroke:#000000;stroke-width:1.0;"/><text fill="#000000" font-family="sans-serif" font-size="14" lengthAdjust="spacing" textLength="114" x="279.5" y="408.0732">createdBy: User</text><ellipse cx="270.5" cy="421.0234" fill="#000000" rx="3" ry="3" style="stroke:#000000;stroke-width:1.0;"/><text fill="#000000" font-family="sans-serif" font-size="14" lengthAdjust="spacing" textLength="147" x="279.5" y="424.3701">createdByUserId: Int</text><ellipse cx="270.5" cy="437.3203" fill="#000000" rx="3" ry="3" style="stroke:#000000;stroke-width:1.0;"/><text fill="#000000" font-family="sans-serif" font-size="14" lengthAdjust="spacing" textLength="157" x="279.5" y="440.667">icuSpecialist: Boolean</text><ellipse cx="270.5" cy="453.6172" fill="#000000" rx="3" ry="3" style="stroke:#000000;stroke-width:1.0;"/><text fill="#000000" font-family="sans-serif" font-size="14" lengthAdjust="spacing" textLength="153" x="279.5" y="456.9639">createdAt: DateTime</text><ellipse cx="270.5" cy="469.9141" fill="#000000" rx="3" ry="3" style="stroke:#000000;stroke-width:1.0;"/><text fill="#000000" font-family="sans-serif" font-size="14" lengthAdjust="spacing" textLength="157" x="279.5" y="473.2607">updatedAt: DateTime</text><ellipse cx="270.5" cy="486.2109" fill="#000000" rx="3" ry="3" style="stroke:#000000;stroke-width:1.0;"/><text fill="#000000" font-family="sans-serif" font-size="14" lengthAdjust="spacing" textLength="151" x="279.5" y="489.5576">startTime: DateTime</text><ellipse cx="270.5" cy="502.5078" fill="#000000" rx="3" ry="3" style="stroke:#000000;stroke-width:1.0;"/><text fill="#000000" font-family="sans-serif" font-size="14" lengthAdjust="spacing" textLength="143" x="279.5" y="505.8545">endTime: DateTime</text><ellipse cx="270.5" cy="518.8047" fill="#000000" rx="3" ry="3" style="stroke:#000000;stroke-width:1.0;"/><text fill="#000000" font-family="sans-serif" font-size="14" lengthAdjust="spacing" textLength="140" x="279.5" y="522.1514">WorkingDays: Day[]</text><ellipse cx="270.5" cy="535.1016" fill="#000000" rx="3" ry="3" style="stroke:#000000;stroke-width:1.0;"/><text fill="#000000" font-family="sans-serif" font-size="14" lengthAdjust="spacing" textLength="228" x="279.5" y="538.4482">Specializations: Specialization[]</text><line style="stroke:#181818;stroke-width:0.5;" x1="260.5" x2="512.5" y1="545.75" y2="545.75"/></g><!--MD5=[cff4d1dfabf1e80e04b31c5c669534b5]
class Day--><g id="elem_Day"><rect codeLine="53" fill="#F1F1F1" height="96.8906" id="Day" rx="2.5" ry="2.5" style="stroke:#181818;stroke-width:0.5;" width="224" x="144.5" y="614"/><ellipse cx="238.75" cy="630" fill="#ADD1B2" rx="11" ry="11" style="stroke:#181818;stroke-width:1.0;"/><path d="M237.5469,630.875 L239,630.875 L239,630.9844 C239,631.3906 239.0313,631.5469 239.1094,631.7031 C239.2656,631.9531 239.5469,632.1094 239.8438,632.1094 C240.0938,632.1094 240.3594,631.9688 240.5156,631.75 C240.6406,631.5938 240.6719,631.4375 240.6719,630.9844 L240.6719,629.0625 C240.6719,628.9063 240.6719,628.8594 240.6563,628.7031 C240.5938,628.2344 240.2813,627.9219 239.8281,627.9219 C239.5781,627.9219 239.3125,628.0625 239.1406,628.2813 C239.0313,628.4531 239,628.6094 239,629.0625 L239,629.1875 L237.5469,629.1875 L237.5469,626.7813 L241.5313,626.7813 L241.5313,627.6406 C241.5313,628.0469 241.5625,628.2188 241.6406,628.375 C241.8125,628.625 242.0938,628.7813 242.375,628.7813 C242.6406,628.7813 242.9063,628.6406 243.0781,628.4219 C243.1875,628.25 243.2188,628.1094 243.2188,627.6406 L243.2188,625.0938 L235.5938,625.0938 C235.1563,625.0938 235.0313,625.1094 234.875,625.2031 C234.625,625.3594 234.4688,625.6563 234.4688,625.9375 C234.4688,626.2188 234.6094,626.4688 234.8281,626.6406 C234.9844,626.75 235.1719,626.7813 235.5938,626.7813 L235.8438,626.7813 L235.8438,633.2969 L235.5938,633.2969 C235.1875,633.2969 235.0313,633.3125 234.875,633.4219 C234.625,633.5938 234.4688,633.8594 234.4688,634.1563 C234.4688,634.4219 234.6094,634.6719 234.8281,634.8281 C234.9688,634.9531 235.2031,635 235.5938,635 L243.5938,635 L243.5938,632.4219 C243.5938,631.9844 243.5625,631.8438 243.4844,631.6875 C243.3125,631.4375 243.0313,631.2813 242.75,631.2813 C242.4844,631.2813 242.2188,631.3906 242.0469,631.6406 C241.9375,631.7969 241.9063,631.9375 241.9063,632.4219 L241.9063,633.2969 L237.5469,633.2969 L237.5469,630.875 Z " fill="#000000"/><text fill="#000000" font-family="sans-serif" font-size="14" lengthAdjust="spacing" textLength="27" x="259.25" y="634.8467">Day</text><line style="stroke:#181818;stroke-width:0.5;" x1="145.5" x2="367.5" y1="646" y2="646"/><ellipse cx="155.5" cy="659.6484" fill="#000000" rx="3" ry="3" style="stroke:#000000;stroke-width:1.0;"/><text fill="#000000" font-family="sans-serif" font-size="14" lengthAdjust="spacing" textLength="42" x="164.5" y="662.9951">id: Int</text><ellipse cx="155.5" cy="675.9453" fill="#000000" rx="3" ry="3" style="stroke:#000000;stroke-width:1.0;"/><text fill="#000000" font-family="sans-serif" font-size="14" lengthAdjust="spacing" textLength="102" x="164.5" y="679.292">day: DayName</text><ellipse cx="155.5" cy="692.2422" fill="#000000" rx="3" ry="3" style="stroke:#000000;stroke-width:1.0;"/><text fill="#000000" font-family="sans-serif" font-size="14" lengthAdjust="spacing" textLength="198" x="164.5" y="695.5889">Practitioners: Practitioner[]</text><line style="stroke:#181818;stroke-width:0.5;" x1="145.5" x2="367.5" y1="702.8906" y2="702.8906"/></g><!--MD5=[c1c3ddcbd44eacf04e641abe31d3f229]
class Specialization--><g id="elem_Specialization"><rect codeLine="59" fill="#F1F1F1" height="96.8906" id="Specialization" rx="2.5" ry="2.5" style="stroke:#181818;stroke-width:0.5;" width="224" x="403.5" y="614"/><ellipse cx="460.75" cy="630" fill="#ADD1B2" rx="11" ry="11" style="stroke:#181818;stroke-width:1.0;"/><path d="M459.5469,630.875 L461,630.875 L461,630.9844 C461,631.3906 461.0313,631.5469 461.1094,631.7031 C461.2656,631.9531 461.5469,632.1094 461.8438,632.1094 C462.0938,632.1094 462.3594,631.9688 462.5156,631.75 C462.6406,631.5938 462.6719,631.4375 462.6719,630.9844 L462.6719,629.0625 C462.6719,628.9063 462.6719,628.8594 462.6563,628.7031 C462.5938,628.2344 462.2813,627.9219 461.8281,627.9219 C461.5781,627.9219 461.3125,628.0625 461.1406,628.2813 C461.0313,628.4531 461,628.6094 461,629.0625 L461,629.1875 L459.5469,629.1875 L459.5469,626.7813 L463.5313,626.7813 L463.5313,627.6406 C463.5313,628.0469 463.5625,628.2188 463.6406,628.375 C463.8125,628.625 464.0938,628.7813 464.375,628.7813 C464.6406,628.7813 464.9063,628.6406 465.0781,628.4219 C465.1875,628.25 465.2188,628.1094 465.2188,627.6406 L465.2188,625.0938 L457.5938,625.0938 C457.1563,625.0938 457.0313,625.1094 456.875,625.2031 C456.625,625.3594 456.4688,625.6563 456.4688,625.9375 C456.4688,626.2188 456.6094,626.4688 456.8281,626.6406 C456.9844,626.75 457.1719,626.7813 457.5938,626.7813 L457.8438,626.7813 L457.8438,633.2969 L457.5938,633.2969 C457.1875,633.2969 457.0313,633.3125 456.875,633.4219 C456.625,633.5938 456.4688,633.8594 456.4688,634.1563 C456.4688,634.4219 456.6094,634.6719 456.8281,634.8281 C456.9688,634.9531 457.2031,635 457.5938,635 L465.5938,635 L465.5938,632.4219 C465.5938,631.9844 465.5625,631.8438 465.4844,631.6875 C465.3125,631.4375 465.0313,631.2813 464.75,631.2813 C464.4844,631.2813 464.2188,631.3906 464.0469,631.6406 C463.9375,631.7969 463.9063,631.9375 463.9063,632.4219 L463.9063,633.2969 L459.5469,633.2969 L459.5469,630.875 Z " fill="#000000"/><text fill="#000000" font-family="sans-serif" font-size="14" lengthAdjust="spacing" textLength="101" x="481.25" y="634.8467">Specialization</text><line style="stroke:#181818;stroke-width:0.5;" x1="404.5" x2="626.5" y1="646" y2="646"/><ellipse cx="414.5" cy="659.6484" fill="#000000" rx="3" ry="3" style="stroke:#000000;stroke-width:1.0;"/><text fill="#000000" font-family="sans-serif" font-size="14" lengthAdjust="spacing" textLength="42" x="423.5" y="662.9951">id: Int</text><ellipse cx="414.5" cy="675.9453" fill="#000000" rx="3" ry="3" style="stroke:#000000;stroke-width:1.0;"/><text fill="#000000" font-family="sans-serif" font-size="14" lengthAdjust="spacing" textLength="93" x="423.5" y="679.292">name: String</text><ellipse cx="414.5" cy="692.2422" fill="#000000" rx="3" ry="3" style="stroke:#000000;stroke-width:1.0;"/><text fill="#000000" font-family="sans-serif" font-size="14" lengthAdjust="spacing" textLength="198" x="423.5" y="695.5889">Practitioners: Practitioner[]</text><line style="stroke:#181818;stroke-width:0.5;" x1="404.5" x2="626.5" y1="702.8906" y2="702.8906"/></g><!--MD5=[f1e08eb9380522146fd493b5d30e7f59]
link User to RefreshToken--><g id="link_User_RefreshToken"><path codeLine="65" d="M99.1667,193.009 C99.1667,193.009 99.1667,310.268 99.1667,310.268 " fill="none" id="User-RefreshToken" style="stroke:#181818;stroke-width:1.0;stroke-dasharray:7.0,7.0;"/><line style="stroke:#181818;stroke-width:1.0;" x1="95.1667" x2="103.1667" y1="189.009" y2="189.009"/><line style="stroke:#181818;stroke-width:1.0;" x1="95.1667" x2="103.1667" y1="192.009" y2="192.009"/><line style="stroke:#181818;stroke-width:1.0;" x1="99.1667" x2="99.1667" y1="193.009" y2="185.009"/><line style="stroke:#181818;stroke-width:1.0;" x1="99.1667" x2="105.1667" y1="310.268" y2="318.268"/><line style="stroke:#181818;stroke-width:1.0;" x1="99.1667" x2="93.1667" y1="310.268" y2="318.268"/><line style="stroke:#181818;stroke-width:1.0;" x1="99.1667" x2="99.1667" y1="310.268" y2="318.268"/><line style="stroke:#181818;stroke-width:1.0;" x1="103.1667" x2="95.1667" y1="308.268" y2="308.268"/></g><!--MD5=[f1e08eb9380522146fd493b5d30e7f59]
link User to RefreshToken--><g id="link_User_RefreshToken"><path codeLine="66" d="M161.833,193.009 C161.833,193.009 161.833,310.268 161.833,310.268 " fill="none" id="User-RefreshToken-1" style="stroke:#181818;stroke-width:1.0;stroke-dasharray:7.0,7.0;"/><line style="stroke:#181818;stroke-width:1.0;" x1="157.833" x2="165.833" y1="189.009" y2="189.009"/><line style="stroke:#181818;stroke-width:1.0;" x1="157.833" x2="165.833" y1="192.009" y2="192.009"/><line style="stroke:#181818;stroke-width:1.0;" x1="161.833" x2="161.833" y1="193.009" y2="185.009"/><line style="stroke:#181818;stroke-width:1.0;" x1="161.833" x2="167.833" y1="310.268" y2="318.268"/><line style="stroke:#181818;stroke-width:1.0;" x1="161.833" x2="155.833" y1="310.268" y2="318.268"/><line style="stroke:#181818;stroke-width:1.0;" x1="161.833" x2="161.833" y1="310.268" y2="318.268"/><line style="stroke:#181818;stroke-width:1.0;" x1="165.833" x2="157.833" y1="308.268" y2="308.268"/></g><!--MD5=[a0d65a8637a95ed0d366b3d85b9da899]
link User to Practitioner--><g id="link_User_Practitioner"><path codeLine="67" d="M239.25,193.186 C239.25,193.186 239.25,282 239.25,282 C239.25,282 251.416,282 251.416,282 " fill="none" id="User-Practitioner" style="stroke:#181818;stroke-width:1.0;stroke-dasharray:7.0,7.0;"/><line style="stroke:#181818;stroke-width:1.0;" x1="235.25" x2="243.25" y1="189.186" y2="189.186"/><line style="stroke:#181818;stroke-width:1.0;" x1="235.25" x2="243.25" y1="192.186" y2="192.186"/><line style="stroke:#181818;stroke-width:1.0;" x1="239.25" x2="239.25" y1="193.186" y2="185.186"/><line style="stroke:#181818;stroke-width:1.0;" x1="251.416" x2="259.416" y1="282" y2="276"/><line style="stroke:#181818;stroke-width:1.0;" x1="251.416" x2="259.416" y1="282" y2="288"/><line style="stroke:#181818;stroke-width:1.0;" x1="251.416" x2="259.416" y1="282" y2="282"/><line style="stroke:#181818;stroke-width:1.0;" x1="249.416" x2="249.416" y1="278" y2="286"/></g><!--MD5=[31c4f05acd1df4cfae44ecee89806e93]
link Practitioner to Day--><g id="link_Practitioner_Day"><path codeLine="68" d="M314,562.009 C314,562.009 314,605.766 314,605.766 " fill="none" id="Practitioner-Day" style="stroke:#181818;stroke-width:1.0;stroke-dasharray:7.0,7.0;"/><line style="stroke:#181818;stroke-width:1.0;" x1="314" x2="308" y1="562.009" y2="554.009"/><line style="stroke:#181818;stroke-width:1.0;" x1="314" x2="320" y1="562.009" y2="554.009"/><line style="stroke:#181818;stroke-width:1.0;" x1="314" x2="314" y1="562.009" y2="554.009"/><line style="stroke:#181818;stroke-width:1.0;" x1="310" x2="318" y1="564.009" y2="564.009"/><line style="stroke:#181818;stroke-width:1.0;" x1="314" x2="320" y1="605.766" y2="613.766"/><line style="stroke:#181818;stroke-width:1.0;" x1="314" x2="308" y1="605.766" y2="613.766"/><line style="stroke:#181818;stroke-width:1.0;" x1="314" x2="314" y1="605.766" y2="613.766"/><line style="stroke:#181818;stroke-width:1.0;" x1="318" x2="310" y1="603.766" y2="603.766"/></g><!--MD5=[4891ac7b0554cf52b5d5ce5146b99c2f]
link Practitioner to Specialization--><g id="link_Practitioner_Specialization"><path codeLine="69" d="M458.5,562.009 C458.5,562.009 458.5,605.766 458.5,605.766 " fill="none" id="Practitioner-Specialization" style="stroke:#181818;stroke-width:1.0;stroke-dasharray:7.0,7.0;"/><line style="stroke:#181818;stroke-width:1.0;" x1="458.5" x2="452.5" y1="562.009" y2="554.009"/><line style="stroke:#181818;stroke-width:1.0;" x1="458.5" x2="464.5" y1="562.009" y2="554.009"/><line style="stroke:#181818;stroke-width:1.0;" x1="458.5" x2="458.5" y1="562.009" y2="554.009"/><line style="stroke:#181818;stroke-width:1.0;" x1="454.5" x2="462.5" y1="564.009" y2="564.009"/><line style="stroke:#181818;stroke-width:1.0;" x1="458.5" x2="464.5" y1="605.766" y2="613.766"/><line style="stroke:#181818;stroke-width:1.0;" x1="458.5" x2="452.5" y1="605.766" y2="613.766"/><line style="stroke:#181818;stroke-width:1.0;" x1="458.5" x2="458.5" y1="605.766" y2="613.766"/><line style="stroke:#181818;stroke-width:1.0;" x1="462.5" x2="454.5" y1="603.766" y2="603.766"/></g><!--MD5=[d9c3969f99caf18fcce6d16e2e8b5076]
link Day to DayName--><g id="link_Day_DayName"><path codeLine="70" d="M256.5,718.301 C256.5,718.301 256.5,763.653 256.5,763.653 " fill="none" id="Day-DayName" style="stroke:#181818;stroke-width:1.0;stroke-dasharray:7.0,7.0;"/><line style="stroke:#181818;stroke-width:1.0;" x1="252.5" x2="260.5" y1="715.301" y2="715.301"/><line style="stroke:#181818;stroke-width:1.0;" x1="252.5" x2="260.5" y1="718.301" y2="718.301"/><line style="stroke:#181818;stroke-width:1.0;" x1="256.5" x2="256.5" y1="719.301" y2="711.301"/><line style="stroke:#181818;stroke-width:1.0;" x1="260.5" x2="252.5" y1="766.653" y2="766.653"/><line style="stroke:#181818;stroke-width:1.0;" x1="260.5" x2="252.5" y1="763.653" y2="763.653"/><line style="stroke:#181818;stroke-width:1.0;" x1="256.5" x2="256.5" y1="762.653" y2="770.653"/></g><!--MD5=[6f4261bd2cd51f3988e8c371bb0dde43]
@startuml
skinparam linetype ortho

enum DayName {
  Monday
  Tuesday
  Wednesday
  Thursday
  Friday
  Saturday
  Sunday
}

entity User {
  * id: Int
  * name: String
  * email: String
  * password: String
  * createdAt: DateTime
  * updatedAt: DateTime
  * RefreshToken: RefreshToken[]
  * Practitioner: Practitioner[]
}

entity RefreshToken {
  * id: Int
  * token: String
  * expireTime: DateTime
  * userId: Int
  * user: User
  * createdAt: DateTime
  * updatedAt: DateTime
}

entity Practitioner {
  * id: Int
  * fullname: String
  * email: String
  * contact: String
  * dob: DateTime
  * address: String
  * image: String
  * createdBy: User
  * createdByUserId: Int
  * icuSpecialist: Boolean
  * createdAt: DateTime
  * updatedAt: DateTime
  * startTime: DateTime
  * endTime: DateTime
  * WorkingDays: Day[]
  * Specializations: Specialization[]
}

entity Day {
  * id: Int
  * day: DayName
  * Practitioners: Practitioner[]
}

entity Specialization {
  * id: Int
  * name: String
  * Practitioners: Practitioner[]
}

User ||..|{ RefreshToken
User ||..|{ RefreshToken
User ||..|{ Practitioner
Practitioner }|..|{ Day
Practitioner }|..|{ Specialization
Day ||..|| DayName
@enduml

PlantUML version 1.2022.13beta8(Unknown compile time)
(GPL source distribution)
Java Runtime: Java(TM) SE Runtime Environment
JVM: Java HotSpot(TM) 64-Bit Server VM
Default Encoding: UTF-8
Language: en
Country: US
--></g></svg>