<svg width="390" height="390" viewBox="0 0 390 390" fill="none" xmlns="http://www.w3.org/2000/svg">
<circle cx="195" cy="195" r="195" fill="#538E84"/>
<g filter="url(#filter0_i_1_9)">
<path d="M124.018 87.078C126.606 94.8223 122.401 103.166 114.683 105.747L102.576 109.758V165.489C102.576 189.921 122.447 209.742 146.939 209.742C171.432 209.742 191.303 189.921 191.303 165.489V109.758L179.242 105.747C171.478 103.166 167.319 94.8223 169.907 87.078C172.495 79.3336 180.859 75.1849 188.623 77.7663L200.684 81.7768C212.745 85.7872 220.879 97.0349 220.879 109.758V165.489C220.879 201.076 195.647 230.763 162.051 237.723C164.962 263.492 186.867 283.498 213.485 283.498C242.09 283.498 265.242 260.403 265.242 231.869V199.278C252.164 193.608 243.061 180.609 243.061 165.489C243.061 145.114 259.605 128.611 280.03 128.611C300.456 128.611 317 145.114 317 165.489C317 180.609 307.896 193.608 294.818 199.278V231.869C294.818 276.675 258.403 313 213.485 313C170.554 313 135.433 279.856 132.383 237.816C98.5091 231.039 73 201.261 73 165.489V109.758C73 97.081 81.1333 85.7872 93.2409 81.7768L105.302 77.7663C113.066 75.1849 121.43 79.3797 124.018 87.078V87.078ZM280.03 180.24C288.21 180.24 294.818 173.648 294.818 165.489C294.818 157.33 288.21 150.738 280.03 150.738C271.851 150.738 265.242 157.33 265.242 165.489C265.242 173.648 271.851 180.24 280.03 180.24Z" fill="white"/>
</g>
<defs>
<filter id="filter0_i_1_9" x="73" y="77" width="244" height="236" filterUnits="userSpaceOnUse" color-interpolation-filters="sRGB">
<feFlood flood-opacity="0" result="BackgroundImageFix"/>
<feBlend mode="normal" in="SourceGraphic" in2="BackgroundImageFix" result="shape"/>
<feColorMatrix in="SourceAlpha" type="matrix" values="0 0 0 0 0 0 0 0 0 0 0 0 0 0 0 0 0 0 127 0" result="hardAlpha"/>
<feOffset/>
<feGaussianBlur stdDeviation="4"/>
<feComposite in2="hardAlpha" operator="arithmetic" k2="-1" k3="1"/>
<feColorMatrix type="matrix" values="0 0 0 0 0 0 0 0 0 0 0 0 0 0 0 0 0 0 0.45 0"/>
<feBlend mode="normal" in2="shape" result="effect1_innerShadow_1_9"/>
</filter>
</defs>
</svg>
